<?xml version="1.0" encoding="UTF-8"?>
<!DOCTYPE svg PUBLIC "-//W3C//DTD SVG 1.1//EN" "http://www.w3.org/Graphics/SVG/1.1/DTD/svg11.dtd">
<!-- Creator: CorelDRAW -->
<svg xmlns="http://www.w3.org/2000/svg" xml:space="preserve" width="36.1848mm" height="26.8684mm" version="1.1" style="shape-rendering:geometricPrecision; text-rendering:geometricPrecision; image-rendering:optimizeQuality; fill-rule:evenodd; clip-rule:evenodd"
viewBox="0 0 3618.48 2686.84"
 xmlns:xlink="http://www.w3.org/1999/xlink"
 xmlns:xodm="http://www.corel.com/coreldraw/odm/2003">
 <defs>
  <style type="text/css">
   <![CDATA[
    .fil0 {fill:#333333;fill-rule:nonzero}
   ]]>
  </style>
 </defs>
 <g id="Layer_x0020_1">
  <metadata id="CorelCorpID_0Corel-Layer"/>
  <path class="fil0" d="M3561.51 2455.43c-100.07,-48.11 -192.2,-110.88 -291.19,-161.04 -79.73,-40.4 -162.19,-72.95 -252.96,-66.75 -154.55,10.57 -287.15,107.56 -440.29,125 -34.83,3.97 -71.58,4.06 -103.63,-12.06 -25.57,-14.11 -45.31,-34.01 -59.24,-59.68 -31.48,-53.21 -46.35,-114.45 -76.69,-168.28 -11.64,-22.2 -26.6,-41.89 -44.87,-59.06 -18.26,-17.16 -38.83,-30.87 -61.71,-41.12 -48.32,-20.53 -98.31,-35.43 -149.99,-44.69 31.76,-35.99 57.84,-75.72 78.23,-119.18 20.39,-43.46 34.29,-88.9 41.68,-136.34 6.48,-44.64 7.41,-89.39 2.79,-134.26 -4.62,-44.88 -14.65,-88.5 -30.08,-130.89 3.97,-7.68 7.79,-15.47 11.27,-23.46 39.13,-89.99 37.06,-189.53 8.11,-282.07 -2.9,-9.27 -6.09,-18.44 -9.4,-27.58 58.3,-57.6 109.67,-120.84 154.09,-189.72 78.12,-123.41 121.1,-274.63 52.28,-412.19 -17.99,-35.35 -40.53,-67.51 -67.61,-96.49 -45.44,-49.28 -102.74,-83.14 -163.47,-110.81 -77.23,-33.9 -157.84,-54.66 -241.83,-62.28 -38.88,-4.2 -77.48,-13.62 -116.32,-18.88 -40.62,-5.51 -81.42,-9.55 -122.41,-12.13 -152.55,-10.46 -303.6,0.2 -453.17,31.99 -130.15,29.7 -254,76.18 -371.57,139.44 -115.69,61.01 -225.1,133.16 -333.88,205.52 -9.45,6.27 1.71,19.86 11.05,13.66 217,-144.26 439.43,-284.41 697.37,-340.88 146.95,-31.17 295.36,-41.64 445.24,-31.4 76.68,5.74 152.82,15.66 228.42,29.78 41.53,7.23 83.22,9.65 124.45,19.69 38.85,9.45 76.61,22.17 113.27,38.13 61.77,26.9 121.33,60.92 167.06,110.95 26.53,28.47 48.45,60.14 65.76,94.99 14.58,30.47 24.16,62.45 28.73,95.91 4.58,33.47 3.94,66.84 -1.92,100.11 -24.17,144.01 -123.52,268.91 -224.9,370.81 -14.03,-34.35 -32.39,-66.19 -55.09,-95.53 -33.8,-41.72 -73.28,-77.08 -118.45,-106.09 -98,-64.61 -211.42,-103.86 -325.13,-130.23 -60.17,-14.13 -120.99,-24.35 -182.47,-30.66 -61.48,-6.31 -123.11,-8.66 -184.9,-7.04 -61.78,1.61 -123.21,7.17 -184.27,16.68 -61.07,9.51 -121.28,22.89 -180.63,40.13 -90.2,26.13 -176.61,61.52 -259.22,106.17 -106.39,27.19 -208.71,65.32 -306.95,114.38 -60.52,30.38 -115.07,69.17 -163.64,116.35 -39.92,40.62 -73.83,85.76 -101.73,135.41 -50.71,89 -83.77,191.68 -75.04,294.98 2.45,25.92 7.76,51.23 15.93,75.94 8.18,24.71 19.01,48.2 32.5,70.46 13.49,22.26 29.29,42.74 47.42,61.43 18.12,18.68 38.1,35.11 59.93,49.27 31.62,19.44 65.09,34.88 100.41,46.29 76.33,27.98 154.93,46.14 235.81,54.47 40.1,4.1 80.45,3.48 120.31,8.69 255.75,33.7 511.98,9.85 762.82,-45.4 206.49,-45.49 421.97,-110.13 595.26,-235.44 59.79,-41.65 109.67,-92.94 149.63,-153.87 21.56,68.04 28.97,137.59 22.22,208.64 -5.42,50.81 -18.61,99.51 -39.59,146.1 -20.97,46.59 -48.68,88.76 -83.12,126.5 -1.45,1.62 -2.97,3.18 -4.4,4.73 -89.39,-13.94 -252.62,-23.3 -251.33,94.92 -0.16,2.82 0.5,5.42 1.99,7.81 1.5,2.4 3.54,4.14 6.15,5.23 93.6,39.42 186.79,-14.22 252,-80.8l1.74 0.3c53.25,8.73 104.8,23.42 154.65,44.08 22.52,9.79 42.62,23.2 60.3,40.25 17.67,17.05 31.8,36.65 42.39,58.81 27.9,53.33 43.19,112.72 74.75,164.21 7.13,12.54 15.77,23.94 25.91,34.2 10.13,10.26 21.43,19.04 33.88,26.33 12.45,7.28 25.63,12.83 39.54,16.65 13.91,3.82 28.08,5.77 42.5,5.85 150.35,2.48 282.47,-89.5 426.28,-119.16 41.3,-9.13 82.95,-11.17 124.96,-6.1 52.39,7.05 102.54,28.91 149.84,51.56 108.12,51.74 207.11,120.38 315.15,172.33 14.73,7.12 23.6,-16.57 9.02,-23.57zm-1394.28 -1055.9c-1.94,5.05 -4.02,10.02 -6.15,14.95 -27.69,-65.86 -63.87,-126.66 -108.54,-182.42 38.2,-31.33 75.55,-64.04 111.15,-98.47 29.88,86.08 36.59,179.63 3.53,265.94l0.01 0zm-845.44 -654.87c104.53,-1.28 207.97,8.71 310.32,29.97 111.45,22.62 223.57,57.44 322.25,114.99 46.83,26.38 88.7,59.1 125.62,98.16 32.35,36.01 57.25,76.6 74.68,121.77l-1.56 1.53c-36.91,35.91 -75.42,70.16 -115.08,103.13 -37.43,-44.69 -78.72,-85.48 -123.85,-122.37 -207.54,-169.7 -485.52,-248.52 -749.7,-262.89 -123.23,-7.36 -245.3,1.4 -366.21,26.28 82.86,-35.18 168.33,-62.06 256.4,-80.66 88.08,-18.6 177.12,-28.57 267.12,-29.9l0.01 -0.01zm-576.11 148.88c256.24,-67.81 537.97,-52.23 789.45,28.18 184.41,58.94 359.43,159.92 483.79,308.11 -95.7,76.95 -196.13,147.13 -301.29,210.54 -121.28,73.9 -248.22,144.13 -381.58,193.95 -76.56,28.59 -155.6,52.41 -234.19,74.69 -109.58,32.85 -221.28,55.02 -335.09,66.53 -100.14,8.57 -209.95,6.18 -301.18,-41.11 -85.36,-44.22 -130.46,-127.21 -139.04,-220.97 -8.97,-98.14 16.23,-198.98 55.31,-288.45 18.55,-44.43 42.38,-85.82 71.48,-124.18 29.1,-38.36 62.54,-72.46 100.33,-102.3 42.97,-33.31 88.21,-63.19 135.71,-89.64 18.78,-5.24 37.55,-10.35 56.3,-15.35zm988.71 850.9c-182.16,70.62 -375.79,112.78 -569.02,139.27 -149.26,20.7 -298.89,23.87 -448.9,9.5 -37.18,-3.62 -74.21,-10.4 -111.52,-11.4 -40.29,-1.05 -80.36,-4.58 -120.22,-10.58 -78.15,-11.92 -153.6,-33.36 -226.34,-64.32 -12.52,-5.12 -24.67,-11.02 -36.44,-17.68 -11.77,-6.67 -23.07,-14.06 -33.89,-22.16 -10.83,-8.11 -21.11,-16.87 -30.82,-26.28 -9.71,-9.41 -18.79,-19.4 -27.23,-29.97 -8.45,-10.57 -16.18,-21.63 -23.22,-33.19 -7.03,-11.55 -13.31,-23.5 -18.82,-35.86 -5.51,-12.35 -10.22,-25 -14.12,-37.95 -3.9,-12.95 -6.97,-26.1 -9.2,-39.44 -15.1,-98.08 13.73,-198.88 59.68,-285.15 28.36,-53.48 63.91,-101.65 106.65,-144.51 42.74,-42.86 90.81,-78.55 144.2,-107.07 71,-37.38 144.86,-67.81 221.59,-91.29 -11.49,7.71 -22.95,15.45 -34.16,23.61 -43.39,30.15 -82.02,65.49 -115.9,106.04 -30.43,38.76 -56.13,80.43 -77.09,125.03 -78.48,163.49 -124.2,417.73 46.18,541.64 83.92,61.05 194.22,73.51 295.08,70.5 118.61,-3.53 235.97,-27.47 350.3,-58 150.5,-40.16 298.9,-88.15 438.63,-157.48 159.66,-79.28 310.98,-172.15 453.96,-278.6 26.71,-19.89 53.35,-40.4 79.66,-61.47 26.39,33.24 49.88,68.4 70.49,105.5 16.41,29.62 30.47,60.32 42.18,92.09 -81.98,150.8 -258.58,239.88 -411.71,299.22zm91.81 305.41c8.27,-80.85 129.69,-75.04 203.49,-64.92 -55.29,51.85 -128.63,91.38 -203.49,64.92z"/>
 </g>
</svg>
