<?xml version="1.0" encoding="UTF-8"?>
<!DOCTYPE svg PUBLIC "-//W3C//DTD SVG 1.1//EN" "http://www.w3.org/Graphics/SVG/1.1/DTD/svg11.dtd">
<!-- Creator: CorelDRAW -->
<svg xmlns="http://www.w3.org/2000/svg" xml:space="preserve" width="36.1848mm" height="26.8684mm" version="1.1" style="shape-rendering:geometricPrecision; text-rendering:geometricPrecision; image-rendering:optimizeQuality; fill-rule:evenodd; clip-rule:evenodd"
viewBox="0 0 3618.48 2686.84"
 xmlns:xlink="http://www.w3.org/1999/xlink"
 xmlns:xodm="http://www.corel.com/coreldraw/odm/2003">
 <defs>
  <style type="text/css">
   <![CDATA[
    .fil0 {fill:#F0532C}
   ]]>
  </style>
 </defs>
 <g id="Layer_x0020_1">
  <metadata id="CorelCorpID_0Corel-Layer"/>
  <g id="_1931673646080">
   <path class="fil0" d="M2520.24 769.28l0 11.59c-315.01,0 -738.89,2.51 -738.89,433.27l0 1441.75 -11.43 0 0 -1441.75c0,-430.76 -423.87,-433.27 -738.88,-433.27l0 -11.59c688.21,0 738.8,-111.53 738.88,-737.26l11.44 0c0.08,625.73 50.67,737.26 738.88,737.26z"/>
   <path class="fil0" d="M2573.18 1739.21l0 4.54c-127.03,0 -297.93,1.1 -297.93,174.82l0 581.77 -4.7 0 0 -581.77c0,-173.72 -171.05,-174.82 -298.09,-174.82l0 -4.54c277.88,0 298.09,-45.11 298.09,-298.09l4.7 0c0,252.98 20.05,298.09 297.93,298.09z"/>
  </g>
 </g>
</svg>
