<?xml version="1.0" encoding="UTF-8"?>
<!DOCTYPE svg PUBLIC "-//W3C//DTD SVG 1.1//EN" "http://www.w3.org/Graphics/SVG/1.1/DTD/svg11.dtd">
<!-- Creator: CorelDRAW -->
<svg xmlns="http://www.w3.org/2000/svg" xml:space="preserve" width="36.1848mm" height="26.8684mm" version="1.1" style="shape-rendering:geometricPrecision; text-rendering:geometricPrecision; image-rendering:optimizeQuality; fill-rule:evenodd; clip-rule:evenodd"
viewBox="0 0 3618.48 2686.84"
 xmlns:xlink="http://www.w3.org/1999/xlink"
 xmlns:xodm="http://www.corel.com/coreldraw/odm/2003">
 <defs>
  <style type="text/css">
   <![CDATA[
    .fil0 {fill:#F0532C}
   ]]>
  </style>
 </defs>
 <g id="Layer_x0020_1">
  <metadata id="CorelCorpID_0Corel-Layer"/>
  <path class="fil0" d="M1741.06 2510.43l-13.57 0c0,-809.96 -131.18,-869.41 -867.75,-869.5l0 -13.58c736.57,-0.1 867.75,-59.55 867.75,-869.36l13.57 0c0,810.46 131.37,869.36 869.36,869.36l0 13.57c-737.99,0 -869.36,58.9 -869.36,869.51zm808.81 -1103.33l-2.98 0c0,-181.47 -29.52,-194.74 -194.74,-194.74l0 -2.99c165.22,0 194.74,-13.27 194.74,-194.75l2.98 0c0,181.48 29.38,194.75 194.6,194.75l0 2.99c-165.22,0 -194.6,13.27 -194.6,194.74zm-376.52 -450.93l-5.96 0c0,-360.27 -58.46,-386.36 -386.36,-386.36l0 -6.12c327.9,0 386.36,-26.09 386.36,-386.21l5.96 0c0,360.12 58.46,386.21 386.37,386.21l0 6.12c-327.91,0 -386.37,26.09 -386.37,386.36z"/>
 </g>
</svg>
