<?xml version="1.0" encoding="UTF-8"?>
<!DOCTYPE svg PUBLIC "-//W3C//DTD SVG 1.1//EN" "http://www.w3.org/Graphics/SVG/1.1/DTD/svg11.dtd">
<!-- Creator: CorelDRAW -->
<svg xmlns="http://www.w3.org/2000/svg" xml:space="preserve" width="36.1848mm" height="26.8684mm" version="1.1" style="shape-rendering:geometricPrecision; text-rendering:geometricPrecision; image-rendering:optimizeQuality; fill-rule:evenodd; clip-rule:evenodd"
viewBox="0 0 3618.48 2686.84"
 xmlns:xlink="http://www.w3.org/1999/xlink"
 xmlns:xodm="http://www.corel.com/coreldraw/odm/2003">
 <defs>
  <style type="text/css">
   <![CDATA[
    .fil0 {fill:#333333;fill-rule:nonzero}
   ]]>
  </style>
 </defs>
 <g id="Layer_x0020_1">
  <metadata id="CorelCorpID_0Corel-Layer"/>
  <path class="fil0" d="M3106.42 1165.79c-8.35,-35.29 -23.39,-67.46 -45.11,-96.5 -11.68,-15.87 -24.53,-30.72 -38.56,-44.56 -6.15,-8.01 -14.01,-13.66 -23.55,-16.97 -10.87,-2.45 -21.98,-4.19 -32.97,-5.96 -74.56,-12.06 -149.23,-12.85 -224.03,-2.38 -17.35,-24.97 -37.58,-47.33 -60.69,-67.08 -23.11,-19.75 -48.35,-36.25 -75.71,-49.5 -30.96,-14.98 -63.24,-26.15 -96.84,-33.51 -1.21,-28.95 -5.13,-57.53 -11.76,-85.74 -32.46,-135.58 -139.77,-240.25 -267.83,-289.74 -140.87,-54.47 -293.58,-26.33 -427.55,34.33 -21.61,-27 -46.62,-50.35 -75.04,-70.05 -28.42,-19.69 -59.05,-34.92 -91.91,-45.69 -98.88,-31.17 -206.55,-17.06 -303.55,14.11 -112.35,38.15 -216.21,92.52 -311.57,163.1 -91.92,65.05 -174.8,140.08 -248.65,225.09 -33.2,38.73 -63.61,80.08 -93.43,121.48 -39.43,53.91 -75.35,110.06 -107.78,168.45 -31.44,54.56 -54.75,112.39 -69.93,173.5 -11.33,50.99 -12.64,105.64 11.39,153.29 4.45,8.85 17.7,1.06 13.3,-7.79 -21.38,-42.8 -19.78,-92.28 -10.01,-138 13.02,-54.74 33.15,-106.72 60.39,-155.94 50.5,-92.1 108.57,-179.15 174.19,-261.16 55.51,-70.63 117.9,-134.56 187.14,-191.78 77.48,-65.73 161.19,-122.21 251.14,-169.46 151.67,-78.75 352.86,-140.87 511.32,-44.8 32.43,19.95 60.73,44.63 84.9,74.05 -7.59,3.65 -15.14,7.34 -22.59,11.18 -143.76,74.06 -270.17,181.33 -378.17,300.9 -112.96,124.22 -205.43,262.17 -277.43,413.86 -69.28,147.57 -116.54,308.75 -117.75,472.82 -0.87,117.11 19.01,262.04 118.31,339.07 64.94,50.39 143.98,50.99 218.59,29.62 22.64,56.84 56.44,111.66 110.79,140.14 57.9,30.35 124.49,20.39 182.56,-3.98 76.41,-32.08 143.37,-85.12 204.3,-140.39 11.95,-10.85 23.66,-21.95 35.32,-33.17 0.4,4.75 0.6,9.5 1.22,14.24 4.57,33.18 13.78,65.03 27.63,95.53 13.84,30.5 31.75,58.4 53.72,83.69 12.51,14.71 25.93,28.56 40.24,41.54 6.96,6.35 14.13,12.53 21.43,18.47 6.31,5.17 13.09,12.97 21.65,12.82 18.47,-1.8 36.57,-5.46 54.3,-10.97 17.72,-4.21 35.28,-9.01 52.68,-14.4 67.39,-20.85 130.88,-50.14 190.48,-87.86 117.13,-74.3 212.43,-178.31 286.5,-294.9 75.06,-119.51 131.32,-247.3 168.8,-383.36 33.04,-118.49 52.34,-246.42 29.39,-368.62 -8.75,-47.49 -25.54,-91.92 -50.4,-133.31 34.54,-4.61 69.23,-6.5 104.07,-5.69 41.08,1.09 81.81,5.43 122.19,13.03 10.24,1.28 18.77,5.79 25.58,13.55 7.09,6.99 13.89,14.25 20.42,21.78 12.95,14.88 24.26,30.92 33.93,48.11 35.85,64.23 35.39,137.01 9.66,204.78 -7.73,19.8 -16.92,38.89 -27.58,57.28 -1.43,2.62 -1.74,5.37 -0.94,8.23 0.8,2.88 2.49,5.06 5.06,6.57 2.58,1.5 5.31,1.9 8.2,1.19 2.9,-0.71 5.14,-2.32 6.73,-4.85 37.43,-65.97 60.89,-141.81 43.81,-217.69zm-397.31 -175.69c3.5,4.2 6.83,8.52 10.09,12.88 -78.65,13.62 -152.94,39.69 -222.85,78.21 -8.32,4.55 -16.52,9.38 -24.66,14.27 24.01,-72.79 36.61,-147.5 37.82,-224.14 38.76,8.6 75.21,23.05 109.34,43.36 34.12,20.31 64.21,45.44 90.26,75.42zm-584.88 -520.29c124.43,15.77 247.32,90.93 311.7,199.77 31.1,54.34 47.92,112.79 50.45,175.34 -60.4,-9.71 -120.76,-9.48 -181.08,0.7 -110.51,17.6 -216.38,60.38 -314.45,113.28 -13.03,7.03 -25.95,14.27 -38.74,21.73 -6.29,-126.76 -31.9,-256.03 -86.38,-371.05 -13.95,-29.58 -30.66,-57.5 -50.13,-83.78 96.91,-43.56 202.58,-69.42 308.63,-55.99zm-359.87 1201.68c-57.07,99.22 -129.09,186.03 -216.08,260.42 -44.06,37.37 -91.64,69.53 -142.75,96.47 -21.64,11.39 -43.99,21.17 -67.05,29.32 -0.81,-2.28 -1.73,-4.49 -2.52,-6.75 -15.16,-42.22 -25.47,-85.59 -30.94,-130.11 -8.68,-81.23 8.2,-163 36.34,-239.01 68.67,-185.5 201.67,-346.68 346.36,-478.63 75.91,-69.92 157.7,-132.11 245.35,-186.59 1.12,57.13 -1.65,114.07 -8.28,170.83 -6.64,56.76 -17.08,112.8 -31.34,168.14 -14.25,55.33 -32.19,109.45 -53.8,162.34 -21.61,52.9 -46.71,104.09 -75.29,153.57zm-517.03 404.75c-21.6,1.22 -42.82,-1.08 -63.66,-6.89 -20.84,-5.82 -40.19,-14.84 -58.04,-27.06 -17.95,-13.58 -33.7,-29.35 -47.25,-47.32 -13.55,-17.97 -24.38,-37.45 -32.5,-58.43 -47.56,-112.91 -43.53,-247.44 -23.49,-365.97 25.48,-139.95 72.84,-272.06 142.07,-396.34 68.1,-125.29 150.61,-240.23 247.53,-344.82 91.7,-101.18 196.14,-186.83 313.32,-256.94 23.35,-13.68 47.48,-26.48 72.22,-38.29 31.87,44.04 56.83,91.7 74.85,142.99 36.46,101.96 56.45,207.06 59.98,315.29 -87.23,52.77 -168.83,113.15 -244.8,181.15 -92.47,81.61 -174.18,172.86 -245.13,273.75 -62.28,89.52 -115.38,188.32 -143.14,294.33 -12.61,46.44 -18.79,93.72 -18.54,141.84 1.85,50.77 10.55,100.33 26.09,148.68 3.17,10.6 6.67,21.38 10.51,32.19 -22.87,6.74 -46.21,10.69 -70.02,11.83l0 0.01zm594.62 -45.07c-52.37,52.66 -110,98.73 -172.9,138.21 -47.5,28.48 -102.13,53.55 -158.73,51.92 -53.1,-1.5 -97.1,-31.42 -127.09,-74.06 -15.11,-21.91 -27.56,-45.24 -37.33,-70 31.98,-11.2 62.65,-25.28 92,-42.23 57.17,-33.6 110.11,-72.9 158.81,-117.91 48.7,-45 92.05,-94.68 130.04,-149.03 79.21,-112.29 137.6,-234.53 175.16,-366.72 37.81,-129.56 54.84,-261.79 51.1,-396.7 79.81,-47.91 164.16,-85.65 253.06,-113.23 81.49,-24.68 167.68,-38.53 252.82,-29.01 9.44,1.06 18.87,2.53 28.28,4.24 0.37,36.55 -2.61,72.82 -8.91,108.82 -8.35,46.91 -20.15,92.94 -35.42,138.09 -53.25,35.82 -103.38,75.58 -150.39,119.28 -121.72,110.69 -221.25,238.63 -298.59,383.84 -37.72,74.13 -71.37,150.05 -100.98,227.76 -23.12,55.08 -35.28,112.47 -36.46,172.19 -4.88,4.83 -9.58,9.77 -14.47,14.52l0 0.02zm588.57 -882.22c-18.88,51.54 -41.02,101.97 -64.5,151.23 -30.1,64.26 -63.42,126.8 -99.97,187.62 -76.66,124.89 -161.54,243.92 -254.64,357.09 -41.92,51.15 -85.64,100.95 -131.76,148.4 1.28,-19.9 4.07,-39.58 8.38,-59.04 8.84,-38.59 21.65,-75.8 38.41,-111.66 16.7,-36.3 29.18,-74.6 45.68,-111.08 32.53,-72.14 70.8,-141.09 114.8,-206.86 89.3,-133.35 198.3,-247.99 326.98,-343.9 5.47,-4.02 11.05,-7.89 16.62,-11.81l0 0.01zm362.68 116.6c-0.48,106.15 -24.04,211.62 -57.34,311.97 -74.54,224.61 -200.02,446.31 -397.76,583.96 -46.96,32.42 -96.85,59.46 -149.65,81.12 -52.8,21.65 -107.31,37.44 -163.51,47.34 -53.03,-42.15 -99.79,-94.04 -125,-157.74 -13.31,-34.28 -20.3,-69.8 -20.95,-106.57 51.27,-51.36 99.33,-105.96 145.35,-161.96 60.67,-73.78 117.94,-150.39 172.15,-229 39.87,-57.82 78.61,-116.69 113.47,-177.68 58.2,-100.78 106.99,-205.93 146.36,-315.45 1.53,-4.3 2.99,-8.65 4.47,-12.99 83.43,-53.82 174.08,-89.07 271.94,-105.77 45.27,71.49 60.84,158.8 60.47,242.77z"/>
 </g>
</svg>
